<?xml version="1.0" standalone="no"?>
<!DOCTYPE svg PUBLIC "-//W3C//DTD SVG 20010904//EN"
 "http://www.w3.org/TR/2001/REC-SVG-20010904/DTD/svg10.dtd">
<svg version="1.0" xmlns="http://www.w3.org/2000/svg"
 width="260.000000pt" height="260.000000pt" viewBox="0 0 260.000000 260.000000"
 preserveAspectRatio="xMidYMid meet">

<g transform="translate(0.000000,260.000000) scale(0.100000,-0.100000)"
fill="#000000" stroke="none">
<path d="M2160 1367 c0 -2 15 -16 33 -33 l32 -29 -29 33 c-28 30 -36 37 -36
29z"/>
<path d="M2230 1296 c0 -2 8 -10 18 -17 15 -13 16 -12 3 4 -13 16 -21 21 -21
13z"/>
<path d="M2253 1250 c2 -8 10 -15 19 -15 8 0 21 -7 30 -15 13 -13 11 -18 -14
-38 -15 -13 -28 -19 -28 -14 0 5 7 15 15 22 8 7 15 17 15 23 0 6 -9 1 -19 -10
-11 -12 -19 -30 -18 -42 1 -20 3 -19 32 7 16 15 34 30 38 33 5 4 -3 18 -17 32
-15 16 -27 21 -30 14 -3 -8 -8 -7 -16 3 -10 13 -11 13 -7 0z"/>
</g>
</svg>
