<?xml version="1.0" standalone="no"?>
<!DOCTYPE svg PUBLIC "-//W3C//DTD SVG 20010904//EN"
 "http://www.w3.org/TR/2001/REC-SVG-20010904/DTD/svg10.dtd">
<svg version="1.0" xmlns="http://www.w3.org/2000/svg"
 width="900.000000pt" height="900.000000pt" viewBox="0 0 900.000000 900.000000"
 preserveAspectRatio="xMidYMid meet">

<g transform="translate(0.000000,900.000000) scale(0.100000,-0.100000)"
fill="#000000" stroke="none">
<path d="M4300 8393 c-325 -27 -485 -51 -720 -109 -517 -127 -1000 -359 -1445
-692 -442 -332 -842 -808 -1105 -1315 -183 -352 -320 -750 -379 -1098 -50
-294 -56 -371 -56 -719 0 -350 5 -412 51 -678 244 -1404 1260 -2583 2621
-3041 1066 -359 2240 -247 3218 307 139 79 385 246 525 358 169 135 465 430
596 594 511 641 803 1379 863 2180 12 167 5 532 -13 703 -97 890 -489 1713
-1115 2345 -667 672 -1507 1066 -2466 1157 -139 13 -458 18 -575 8z m1675
-2147 c106 -28 154 -62 298 -209 154 -158 199 -231 218 -346 17 -110 -14 -240
-79 -325 -20 -28 -264 -270 -542 -540 -278 -270 -505 -496 -505 -503 0 -6 249
-273 553 -591 305 -319 564 -596 578 -615 91 -134 97 -321 16 -470 -33 -62
-290 -313 -358 -349 -181 -97 -389 -68 -539 77 -28 27 -195 201 -370 385 -395
415 -503 527 -630 657 l-100 101 -540 -525 c-297 -288 -562 -540 -590 -559
-83 -56 -160 -77 -273 -72 -83 4 -107 9 -167 37 -60 27 -89 51 -211 175 -120
121 -147 155 -180 221 -35 71 -39 86 -42 174 -3 79 0 107 17 159 41 121 12 89
531 592 195 190 422 411 504 491 l150 147 -90 94 c-49 52 -258 271 -464 487
-206 216 -390 416 -408 444 -84 133 -88 323 -9 457 33 56 62 88 194 212 140
132 205 171 319 189 94 15 175 1 272 -46 69 -35 93 -58 543 -528 258 -271 475
-492 480 -492 5 0 235 218 510 485 276 267 526 502 556 522 102 70 242 95 358
64z"/>
</g>
</svg>
